<svg xmlns="http://www.w3.org/2000/svg" xmlns:xlink="http://www.w3.org/1999/xlink" version="1.1" x="0px" y="0px" viewBox="0 0 150 187.5" enable-background="new 0 0 150 150" xml:space="preserve"><path d="M117.373,122.059l4.688-4.688L94.23,89.545c0.004-0.005,0.01-0.01,0.014-0.015c-0.436-0.521-3.178-3.484-6.482,0.055  l-0.004-0.004c-5.846,5.418-13.662,8.738-22.263,8.763v-0.049c-18.158,0-32.854-14.675-32.891-32.823h0.023  c0-18.148,14.661-32.839,32.797-32.891v0.049c18.158,0,32.855,14.676,32.892,32.823h-0.025c0,6.777-2.045,13.071-5.553,18.303  c1.803,0.484,3.205,1.599,4.025,2.394c3.926-5.932,6.217-13.043,6.217-20.696h-0.025c-0.012-20.72-16.77-37.486-37.486-37.511  v-0.001c-0.007,0-0.015,0.001-0.021,0.001c-0.008,0-0.016-0.001-0.023-0.001v0.001c-20.723,0.024-37.485,16.801-37.485,37.529h0.025  c0.011,20.72,16.768,37.486,37.485,37.511v0.001c0.008,0,0.014-0.001,0.021-0.001s0.016,0.001,0.023,0.001v-0.001  c9.16-0.011,17.537-3.305,24.042-8.757L117.373,122.059z"/><text x="0" y="165" fill="#000000" font-size="5px" font-weight="bold" font-family="'Helvetica Neue', Helvetica, Arial-Unicode, Arial, Sans-serif">Created by Ricardo Cardoso</text><text x="0" y="170" fill="#000000" font-size="5px" font-weight="bold" font-family="'Helvetica Neue', Helvetica, Arial-Unicode, Arial, Sans-serif">from the Noun Project</text></svg>