<svg xmlns="http://www.w3.org/2000/svg" xmlns:xlink="http://www.w3.org/1999/xlink" version="1.1" width="1000" height="1000" viewBox="0 0 1000 1000" xml:space="preserve">
<desc>Created with Fabric.js 3.5.0</desc>
<defs>
</defs>
<rect x="0" y="0" width="100%" height="100%" fill="rgba(255,255,255,0)"/>
<g transform="matrix(1.4205 0 0 1.4205 165.3389 555.003)" id="962968">
<path style="stroke: none; stroke-width: 1; stroke-dasharray: none; stroke-linecap: butt; stroke-dashoffset: 0; stroke-linejoin: miter; stroke-miterlimit: 4; is-custom-font: none; font-file-url: none; fill: rgb(0,0,0); fill-rule: nonzero; opacity: 1;" transform=" translate(-20.3985, -294.7219)" d="M 17.959 298.366 a 3.664 3.664 0 0 0 0.758 0.406 a 4.294 4.294 0 0 0 0.824 0.252 a 4.531 4.531 0 0 0 0.858 0.087 a 4.631 4.631 0 0 0 0.857 -0.087 a 4.8 4.8 0 0 0 0.824 -0.252 a 4.362 4.362 0 0 0 0.758 -0.406 a 4.577 4.577 0 0 0 0.66 -0.538 a 4.334 4.334 0 0 0 1.208 -3.96 a 4.2 4.2 0 0 0 -0.253 -0.823 a 4.628 4.628 0 0 0 -0.945 -1.426 a 4.681 4.681 0 0 0 -0.67 -0.549 a 5.26 5.26 0 0 0 -0.758 -0.406 a 5.883 5.883 0 0 0 -0.824 -0.251 a 4.445 4.445 0 0 0 -3.967 1.206 a 4.057 4.057 0 0 0 -0.55 0.669 a 4.649 4.649 0 0 0 -0.406 0.757 a 5.1 5.1 0 0 0 -0.253 0.823 a 4.462 4.462 0 0 0 1.209 3.96 A 4 4 0 0 0 17.959 298.366 Z" stroke-linecap="round"/>
</g>
<g transform="matrix(1.4205 0 0 1.4205 500.011 500.0106)" id="685425">
<path style="stroke: none; stroke-width: 1; stroke-dasharray: none; stroke-linecap: butt; stroke-dashoffset: 0; stroke-linejoin: miter; stroke-miterlimit: 4; is-custom-font: none; font-file-url: none; fill: rgb(0,0,0); fill-rule: nonzero; opacity: 1;" transform=" translate(-256, -256)" d="M 469.628 67.159 H 426.776 V 48.828 A 26.381 26.381 0 0 0 400.4 22.5 H 370.761 a 26.38 26.38 0 0 0 -26.372 26.328 v 17.56 H 167.611 V 49.282 a 26.38 26.38 0 0 0 -26.372 -26.328 H 111.6 A 26.381 26.381 0 0 0 85.224 49.282 V 67.159 H 42.372 A 26.38 26.38 0 0 0 16 93.487 V 257.73 a 4.4 4.4 0 0 0 8.791 0 V 183.718 H 487.209 V 463.172 a 17.587 17.587 0 0 1 -17.581 17.552 H 42.372 a 17.587 17.587 0 0 1 -17.581 -17.552 V 332.192 a 4.4 4.4 0 0 0 -8.791 0 v 130.98 A 26.38 26.38 0 0 0 42.372 489.5 H 469.628 A 26.38 26.38 0 0 0 496 463.172 V 93.487 A 26.38 26.38 0 0 0 469.628 67.159 Z M 353.179 48.828 a 17.587 17.587 0 0 1 17.582 -17.552 H 400.4 a 17.587 17.587 0 0 1 17.582 17.552 V 92.72 A 17.587 17.587 0 0 1 400.4 110.272 H 370.761 A 17.587 17.587 0 0 1 353.179 92.72 Z m -259.164 0.454 A 17.587 17.587 0 0 1 111.6 31.73 h 29.642 a 17.587 17.587 0 0 1 17.582 17.552 V 93.174 a 17.587 17.587 0 0 1 -17.582 17.552 H 111.6 A 17.587 17.587 0 0 1 94.015 93.174 Z M 24.791 174.942 V 93.487 A 17.587 17.587 0 0 1 42.372 75.935 H 85.224 V 93.174 A 26.381 26.381 0 0 0 111.6 119.5 h 29.642 a 26.38 26.38 0 0 0 26.372 -26.328 V 75.164 H 344.389 V 92.72 a 26.38 26.38 0 0 0 26.372 26.328 H 400.4 A 26.381 26.381 0 0 0 426.776 92.72 V 75.935 h 42.852 a 17.587 17.587 0 0 1 17.581 17.552 v 81.455 Z" stroke-linecap="round"/>
</g>
</svg>