<svg xmlns="http://www.w3.org/2000/svg" xmlns:xlink="http://www.w3.org/1999/xlink" version="1.1" width="1000" height="1000" viewBox="0 0 1000 1000" xml:space="preserve">
<desc>Created with Fabric.js 3.5.0</desc>
<defs>
</defs>
<rect x="0" y="0" width="100%" height="100%" fill="rgba(255,255,255,0)"/>
<g transform="matrix(4.4077 0 0 4.4077 499.9993 499.9993)" id="58461">
<path style="stroke: none; stroke-width: 1; stroke-dasharray: none; stroke-linecap: butt; stroke-dashoffset: 0; stroke-linejoin: miter; stroke-miterlimit: 4; is-custom-font: none; font-file-url: none; fill: rgb(0,0,0); fill-rule: nonzero; opacity: 1;" transform=" translate(-75.0005, -75.0005)" d="M 117.373 122.059 l 4.688 -4.688 L 94.23 89.545 c 0.004 -0.005 0.01 -0.01 0.014 -0.015 c -0.436 -0.521 -3.178 -3.484 -6.482 0.055 l -0.004 -0.004 c -5.846 5.418 -13.662 8.738 -22.263 8.763 v -0.049 c -18.158 0 -32.854 -14.675 -32.891 -32.823 h 0.023 c 0 -18.148 14.661 -32.839 32.797 -32.891 v 0.049 c 18.158 0 32.855 14.676 32.892 32.823 h -0.025 c 0 6.777 -2.045 13.071 -5.553 18.303 c 1.803 0.484 3.205 1.599 4.025 2.394 c 3.926 -5.932 6.217 -13.043 6.217 -20.696 h -0.025 c -0.012 -20.72 -16.77 -37.486 -37.486 -37.511 v -0.001 c -0.007 0 -0.015 0.001 -0.021 0.001 c -0.008 0 -0.016 -0.001 -0.023 -0.001 v 0.001 c -20.723 0.024 -37.485 16.801 -37.485 37.529 h 0.025 c 0.011 20.72 16.768 37.486 37.485 37.511 v 0.001 c 0.008 0 0.014 -0.001 0.021 -0.001 s 0.016 0.001 0.023 0.001 v -0.001 c 9.16 -0.011 17.537 -3.305 24.042 -8.757 L 117.373 122.059 z" stroke-linecap="round"/>
</g>
</svg>