<svg xmlns="http://www.w3.org/2000/svg" xmlns:xlink="http://www.w3.org/1999/xlink" version="1.1" width="1000" height="1000" viewBox="0 0 1000 1000" xml:space="preserve">
<desc>Created with Fabric.js 3.5.0</desc>
<defs>
</defs>
<rect x="0" y="0" width="100%" height="100%" fill="rgba(255,255,255,0)"/>
<g transform="matrix(6.734 0 0 6.734 499.9997 499.9997)" id="338407">
<path style="stroke: none; stroke-width: 1; stroke-dasharray: none; stroke-linecap: butt; stroke-dashoffset: 0; stroke-linejoin: miter; stroke-miterlimit: 4; is-custom-font: none; font-file-url: none; fill: rgb(0,0,0); fill-rule: nonzero; opacity: 1;" transform=" translate(-49.998, -49.9937)" d="m 50 23.414 c -0.88281 0 -1.5977 0.71484 -1.5977 1.5977 v 24.324 l -12.312 12.316 c -0.625 0.62109 -0.625 1.6328 0 2.2578 c 0.3125 0.3125 0.72266 0.46484 1.1289 0.46484 c 0.41016 0 0.82031 -0.15234 1.1289 -0.46484 l 12.699 -12.707 c 0.33594 -0.29297 0.54688 -0.72656 0.54688 -1.207 v -24.984 c 0 -0.88281 -0.71484 -1.5977 -1.5938 -1.5977 z m -17.668 42.648 v 0.003906 c -0.40625 -0.003906 -0.81641 0.15234 -1.1289 0.46484 c -0.625 0.625 -0.625 1.6367 0 2.2578 c 0.3125 0.3125 0.71875 0.46875 1.1289 0.46875 c 0.41016 0 0.81641 -0.15625 1.1289 -0.46875 c 0.625 -0.625 0.625 -1.6328 0 -2.2578 c -0.30859 -0.3125 -0.71875 -0.46875 -1.1289 -0.46875 v 0.003906 z m 17.668 -48.48 c 17.898 0 32.414 14.512 32.414 32.414 s -14.516 32.414 -32.414 32.414 c -17.902 0 -32.414 -14.512 -32.414 -32.414 s 14.512 -32.414 32.414 -32.414 z m 0 -3.1953 c -19.668 0 -35.609 15.941 -35.609 35.609 c 0 19.664 15.941 35.605 35.609 35.605 c 19.664 0 35.605 -15.941 35.605 -35.605 c 0 -19.668 -15.941 -35.609 -35.605 -35.609 z" stroke-linecap="round"/>
</g>
</svg>