<svg xmlns="http://www.w3.org/2000/svg" xmlns:xlink="http://www.w3.org/1999/xlink" version="1.1" width="911" height="196" viewBox="0 0 911 196" xml:space="preserve">
<desc>Created with Fabric.js 3.5.0</desc>
<defs>
</defs>
<rect x="0" y="0" width="100%" height="100%" fill="rgba(255,255,255,0)"/>
<g transform="matrix(2.4267 0 0 2.4115 342.036 98.7461)" id="794607">
<path style="stroke: none; stroke-width: 1; stroke-dasharray: none; stroke-linecap: butt; stroke-dashoffset: 0; stroke-linejoin: miter; stroke-miterlimit: 4; is-custom-font: none; font-file-url: none; fill: rgb(255,255,255); fill-rule: nonzero; opacity: 1;" transform=" translate(-140.947, -40.948)" d="M 0.338 13.966 H 12.56 l 15.882 43.187 h 0.166 L 44.57 13.966 H 56.38 v 53.12 h -8.232 V 21.2 h -0.168 L 31.184 67.086 h -6.982 L 7.407 21.2 H 7.24 v 45.886 H 0.337 M 62.552 48.76 c 0 -12.396 5.82 -19.166 17.46 -19.166 s 17.544 6.772 17.544 19.166 c 0 12.395 -5.904 19.17 -17.544 19.17 c -11.637 0 -17.46 -6.774 -17.46 -19.17 z M 80.014 64.7 c 7.48 0 8.4 -9.24 8.4 -15.94 c 0 -6.697 -0.92 -15.94 -8.4 -15.94 c -7.4 0 -8.315 9.243 -8.315 15.94 c 0 6.7 0.915 15.94 8.314 15.94 z m 24.05 -34.26 h 8.4 v 8.698 h 0.163 c 1.33 -2.693 5.156 -9.544 13.885 -9.544 c 6.986 0 9.977 5.387 9.977 10.697 v 26.796 h -8.397 V 44.142 c 0 -4.618 -0.75 -8.775 -4.99 -8.775 c -8.314 0 -10.64 12.01 -10.64 16.55 v 15.17 h -8.4 V 30.44 z m 62.547 36.95 c -1.663 0.384 -3.907 0.54 -5.82 0.54 c -7.898 0 -12.472 -2.235 -12.472 -9.315 V 34.44 H 142 v -4 h 6.318 v -8.62 l 8.396 -4.7 v 13.32 h 10.807 v 4 h -10.806 v 21.094 c 0 5.39 0.584 8.006 5.987 8.006 c 1.333 0 2.743 -0.156 3.91 -0.613 v 4.463 z m 6.32 -36.95 h 8.4 v 9.313 h 0.165 c 2.66 -4.928 5.57 -9.62 12.803 -10.16 v 8.082 c -8.063 0.23 -12.97 2.773 -12.97 12.624 v 16.784 h -8.398 V 30.44 z m 44.067 37.49 c -10.973 0 -19.79 -6.004 -19.79 -20.784 c 0 -10.163 4.407 -17.554 16.877 -17.554 c 12.81 0 15.22 7.93 15.22 15.013 h -23.7 c 0 7.234 3.493 19.24 15.38 19.24 c 2.58 0 5.072 -0.46 7.57 -1.54 v 3.547 c -3.495 1.31 -6.57 2.078 -11.557 2.078 z m 4.074 -26.867 c 0 -2.846 -1.082 -8.24 -7.318 -8.24 c -6.485 0 -7.73 6.163 -7.9 8.24 h 15.22 z m -6.017 -27.065 h 8.812 L 215.75 24.05 h -6.242 l 5.545 -10.052 z m 41.02 48.005 h -0.17 c -1.33 2.152 -4.82 5.927 -11.14 5.927 c -6.234 0 -10.807 -4.082 -10.807 -9.163 c 0 -11.314 16.88 -11.854 22.118 -12.086 v -3.23 c 0 -4.007 0 -10.63 -5.57 -10.63 c -5.157 0 -6.072 3.698 -6.404 8.01 h -8.812 c 0.417 -5.467 2.742 -11.24 15.217 -11.24 c 12.89 0 13.968 6.698 13.968 13.86 v 23.634 h -8.397 v -5.08 h -0.004 z m 0 -12.088 c -3.495 0.233 -12.976 0.926 -12.976 7.697 c 0 3.315 2.08 5.47 4.825 5.47 c 2.91 0 8.15 -2.618 8.15 -8.857 v -4.31 z M 273.16 13.966 h 8.397 v 53.12 h -8.397" stroke-linecap="round"/>
</g>
<g transform="matrix(2.4267 0 0 2.4115 812.9056 97.7767)" id="885422">
<path style="stroke: none; stroke-width: 1; stroke-dasharray: none; stroke-linecap: butt; stroke-dashoffset: 0; stroke-linejoin: miter; stroke-miterlimit: 4; is-custom-font: none; font-file-url: none; fill: rgb(227,49,49); fill-rule: nonzero; opacity: 1;" transform=" translate(-334.984, -40.546)" d="M 335.042 6.816 c -2.567 -3.823 -6.774 -6.2 -11.06 -6.2 c -7.35 0 -13.106 5.834 -13.106 13.288 c 0 0.714 0.15 1.714 0.43 2.962 c -0.677 -0.14 -1.94 -0.38 -2.983 -0.38 c -7.45 0 -13.29 5.727 -13.29 13.046 c 0 4.306 2.403 8.517 6.265 11.09 c -3.9 2.61 -6.236 6.67 -6.236 10.944 c 0 7.23 5.966 13.108 13.295 13.108 c 0.9 0 1.984 -0.208 2.93 -0.417 c -0.265 1.196 -0.41 2.204 -0.41 2.933 c 0 7.45 5.758 13.287 13.107 13.287 c 4.353 0 8.416 -2.27 10.963 -6.073 c 2.45 3.64 6.853 6.073 11.072 6.073 c 7.322 0 13.05 -5.834 13.05 -13.287 c 0 -0.968 -0.21 -2.136 -0.38 -2.933 c 1.25 0.267 2.246 0.417 2.96 0.417 c 7.328 0 13.286 -5.88 13.286 -13.108 c 0 -4.31 -2.32 -8.5 -6.066 -11.024 c 3.745 -2.522 6.066 -6.698 6.066 -11.017 c 0 -7.19 -5.987 -13.047 -13.35 -13.047 c -0.92 0 -2.033 0.234 -2.904 0.423 c 0.144 -0.68 0.387 -1.966 0.387 -2.996 c 0 -7.454 -5.728 -13.29 -13.05 -13.29 c -4.264 0 -8.42 2.377 -10.978 6.202 z M 317.8 20.126 l -0.004 -0.003 c -0.638 -0.602 -2.71 -2.84 -2.715 -6.37 v -0.018 c 0 -5.463 4.594 -8.855 8.857 -8.864 c 2.372 -0.003 4.6 0.917 6.286 2.594 c 1.682 1.674 2.6 3.914 2.603 6.307 v 20.596 c -0.004 2.544 -2.26 3.957 -3.856 3.957 h -20.688 c -2.343 0.004 -4.647 -0.947 -6.336 -2.626 c -1.157 -1.153 -2.537 -3.172 -2.543 -6.222 c -0.002 -2.35 0.947 -4.65 2.616 -6.32 c 1.642 -1.644 3.835 -2.554 6.18 -2.556 c 3.123 -0.003 5.223 1.453 6.432 2.673 c 0 0 0.78 0.78 1.043 1.028 c -0.176 0.462 -0.35 1.062 -0.35 1.89 c 0 2.95 2.43 5.357 5.415 5.37 c 1.44 0.01 2.723 -0.516 3.724 -1.505 c 1.016 -1.014 1.62 -2.462 1.62 -3.878 c 0.005 -1.376 -0.618 -2.855 -1.624 -3.868 c -0.995 -0.988 -2.29 -1.51 -3.762 -1.505 c -0.804 0.002 -1.48 0.236 -1.838 0.355 c -0.185 -0.177 -1.06 -1.035 -1.06 -1.035 z m 19.398 -6.376 c -0.008 -2.34 0.917 -4.65 2.597 -6.338 c 1.153 -1.157 3.178 -2.54 6.222 -2.543 c 2.35 -0.003 4.66 0.95 6.323 2.615 c 1.644 1.643 2.55 3.84 2.555 6.186 v 0.014 c 0 3.118 -1.448 5.21 -2.67 6.416 c 0 0.005 -0.782 0.786 -1.034 1.04 c -0.46 -0.17 -1.06 -0.344 -1.887 -0.346 c -2.946 -0.002 -5.353 2.43 -5.364 5.416 c -0.007 1.44 0.51 2.72 1.5 3.716 c 1.01 1.016 2.457 1.625 3.876 1.63 h 0.012 c 1.375 0 2.846 -0.63 3.856 -1.638 c 0.986 -0.98 1.5 -2.273 1.5 -3.74 v -0.01 c 0 -0.802 -0.227 -1.483 -0.35 -1.836 c 0.18 -0.183 1.04 -1.066 1.04 -1.066 c 0.604 -0.64 2.837 -2.713 6.362 -2.72 c 5.478 -0.01 8.877 4.592 8.883 8.86 c 0.003 2.37 -0.92 4.606 -2.594 6.29 c -1.672 1.676 -3.91 2.623 -6.304 2.627 H 341.13 c -2.548 -0.004 -3.934 -2.294 -3.936 -3.897 V 13.75 h 0.004 z m -35.2 44.22 c -1.685 -1.676 -2.65 -3.978 -2.657 -6.308 c -0.005 -2.37 0.917 -4.606 2.598 -6.29 c 1.672 -1.68 3.905 -2.64 6.3 -2.647 h 20.6 c 2.548 0.006 3.984 2.314 3.988 3.91 v 20.68 c 0.002 2.343 -0.977 4.65 -2.66 6.34 c -1.156 1.157 -3.173 2.536 -6.22 2.538 c -4.887 0.01 -8.873 -3.94 -8.878 -8.798 v -0.016 c 0 -3.11 1.455 -5.205 2.672 -6.418 c 0.004 0 0.78 -0.78 1.032 -1.04 c 0.466 0.172 1.06 0.346 1.887 0.35 c 2.955 0 5.356 -2.428 5.37 -5.42 c 0 -1.435 -0.515 -2.713 -1.5 -3.712 c -1.01 -1.014 -2.46 -1.624 -3.882 -1.628 c -1.37 0 -2.856 0.62 -3.866 1.63 c -0.984 0.99 -1.508 2.283 -1.508 3.746 v 0.01 c 0 0.802 0.23 1.485 0.36 1.832 l -1.043 1.068 c -0.598 0.642 -2.843 2.72 -6.368 2.72 c -2.362 0.01 -4.57 -0.9 -6.224 -2.547 z m 37.868 15.6 c -1.68 -1.67 -2.668 -3.91 -2.67 -6.303 V 46.67 c 0.002 -2.545 2.344 -3.94 3.943 -3.945 h 20.67 c 4.27 -0.004 8.88 3.357 8.888 8.835 c 0.004 4.886 -3.945 8.872 -8.808 8.878 c -3.124 0.004 -5.22 -1.448 -6.425 -2.67 c -0.004 -0.003 -0.786 -0.782 -1.037 -1.038 c 0.168 -0.463 0.343 -1.057 0.343 -1.886 v -0.006 c 0 -2.946 -2.428 -5.353 -5.417 -5.362 c -1.437 -0.006 -2.715 0.515 -3.708 1.498 c -1.014 1.01 -1.627 2.466 -1.635 3.885 c 0 1.372 0.63 2.855 1.637 3.865 c 0.987 0.988 2.283 1.508 3.754 1.502 c 0.81 0 1.484 -0.227 1.833 -0.352 l 1.064 1.037 c 0.64 0.602 2.715 2.838 2.723 6.367 v 0.012 c 0 5.47 -4.603 8.866 -8.868 8.872 c -2.364 0.01 -4.603 -0.916 -6.286 -2.595 z" stroke-linecap="round"/>
</g>
</svg>