<svg xmlns="http://www.w3.org/2000/svg" xmlns:xlink="http://www.w3.org/1999/xlink" xmlns:xodm="http://www.corel.com/coreldraw/odm/2003" xml:space="preserve" version="1.1" style="shape-rendering:geometricPrecision;text-rendering:geometricPrecision;image-rendering:optimizeQuality;" viewBox="0 0 8.4666 10.58325" x="0px" y="0px" fill-rule="evenodd" clip-rule="evenodd"><defs><style type="text/css">
   
    .fil0 {fill:black;fill-rule:nonzero}
   
  </style></defs><g><path class="fil0" d="M4.2333 1.7864c0.3081,0 0.5879,0.1254 0.7908,0.3281l0.0008 0.0008c0.2029,0.2033 0.3281,0.4829 0.3281,0.7908 0,0.3084 -0.1255,0.5882 -0.328,0.7909 -0.2026,0.2034 -0.4826,0.3288 -0.7917,0.3288 -0.3091,0 -0.5891,-0.1254 -0.7917,-0.328l-0.0118 -0.0128c-0.1955,-0.2017 -0.3162,-0.4765 -0.3162,-0.7789 0,-0.3081 0.1254,-0.5879 0.3281,-0.7908l0.0008 -0.0008c0.2033,-0.2029 0.4829,-0.3281 0.7908,-0.3281zm-1.9753 4.9333l0 -1.0444c0,-0.4189 0.1718,-0.8006 0.4484,-1.0775l0.0008 -0.0008c0.2774,-0.2768 0.6588,-0.4484 1.0775,-0.4484l0.8981 0.0009c0.4196,0.0002 0.801,0.1718 1.0768,0.4475 0.2767,0.2759 0.4482,0.6573 0.4481,1.0774l-0.0011 1.451c0,0.0762 -0.0404,0.1429 -0.101,0.1799 -0.2196,0.1343 -0.4544,0.2457 -0.7007,0.3303 -0.2402,0.0825 -0.4936,0.1408 -0.7574,0.1714l-0.0026 0.0003c-0.9849,0.1135 -1.9237,-0.1831 -2.6449,-0.7542 -0.7221,-0.572 -1.226,-1.4192 -1.3404,-2.4054l-0.0005 -0.0052c-0.1128,-0.984 0.1837,-1.9219 0.7544,-2.6425 0.572,-0.7221 1.4192,-1.226 2.4054,-1.3404l0.0052 -0.0005c0.984,-0.1128 1.9219,0.1837 2.6425,0.7544 0.7221,0.572 1.226,1.4192 1.3404,2.4054l0.0002 0.0018c0.0372,0.323 0.0305,0.641 -0.0154,0.9475 -0.0476,0.3182 -0.1375,0.6247 -0.2639,0.9118 -0.047,0.1068 -0.1719,0.1553 -0.2787,0.1083 -0.1068,-0.047 -0.1553,-0.1719 -0.1083,-0.2787 0.1114,-0.2532 0.1906,-0.523 0.2325,-0.8026 0.0401,-0.2682 0.0465,-0.5462 0.015,-0.8279l-0.0027 -0.0225c-0.1033,-0.8665 -0.5464,-1.6102 -1.1803,-2.1123 -0.634,-0.5021 -1.4595,-0.7634 -2.327,-0.6659l-0.022 0.0025c-0.8664,0.1033 -1.61,0.5465 -2.1121,1.1803 -0.5021,0.634 -0.7634,1.4595 -0.6659,2.327l0.0025 0.022c0.1032,0.8649 0.545,1.6075 1.1771,2.1095zm0.4234 -1.0444l0 1.3285c0.5599,0.3139 1.2201,0.4616 1.9068,0.3844l0.0224 -0.0025c0.2276,-0.0273 0.4475,-0.0783 0.6571,-0.1503 0.1814,-0.0623 0.3544,-0.1401 0.5174,-0.2313l0.0001 -1.3297c0.0009,-0.3022 -0.1237,-0.5779 -0.324,-0.7782 -0.2,-0.2005 -0.4759,-0.325 -0.7784,-0.3251l-0.8981 0.0009c-0.3038,0 -0.5797,0.1239 -0.7791,0.3234l-0.0008 0.0008c-0.1995,0.1994 -0.3234,0.4753 -0.3234,0.7791zm2.0443 -3.2624c-0.1254,-0.1254 -0.2995,-0.2031 -0.4924,-0.2031 -0.1929,0 -0.367,0.0777 -0.4924,0.2031l-0.0008 0.0008c-0.1254,0.1254 -0.2031,0.2995 -0.2031,0.4924 0,0.188 0.0741,0.3585 0.1943,0.4835l0.0095 0.009c0.1258,0.1258 0.3001,0.2038 0.4925,0.2038 0.1924,0 0.3667,-0.078 0.4925,-0.2038 0.126,-0.1255 0.2038,-0.2998 0.2038,-0.4925 0,-0.1929 -0.0777,-0.367 -0.2031,-0.4924l-0.0008 -0.0008z"/></g><text x="0" y="23.4666" fill="#000000" font-size="5px" font-weight="bold" font-family="'Helvetica Neue', Helvetica, Arial-Unicode, Arial, Sans-serif">Created by Lula Sugiantoro</text><text x="0" y="28.4666" fill="#000000" font-size="5px" font-weight="bold" font-family="'Helvetica Neue', Helvetica, Arial-Unicode, Arial, Sans-serif">from the Noun Project</text></svg>