<svg xmlns="http://www.w3.org/2000/svg" xmlns:xlink="http://www.w3.org/1999/xlink" version="1.1" width="16" height="15" viewBox="0 0 16 15" xml:space="preserve">
<desc>Created with Fabric.js 3.5.0</desc>
<defs>
</defs>
<rect x="0" y="0" width="100%" height="100%" fill="rgba(255,255,255,0)"/>
<g transform="matrix(0.2376 0 0 0.242 7.9989 7.4995)" id="724574">
<path style="stroke: none; stroke-width: 0; stroke-dasharray: none; stroke-linecap: butt; stroke-dashoffset: 0; stroke-linejoin: miter; stroke-miterlimit: 4; is-custom-font: none; font-file-url: none; fill: rgb(204,33,49); fill-rule: evenodd; opacity: 1;" transform=" translate(-96.42, -80.9603)" d="M 99 60.54 c -0.014 5.97 -0.025 11.94 -0.037 17.91 l 19.963 0.039 c 8.045 -0.151 8.27 -11.655 0.104 -12.178 c -2.484 -0.159 -5.611 1.738 -6.09 5.551 c -0.371 2.952 -2.641 3.981 -4.449 4.184 c -1.695 0.19 -4.461 -1.032 -4.969 -4.078 c -0.318 -1.909 0.812 -4.382 3.354 -5.178 c 3.031 -0.95 4.549 -3.958 4.332 -6.156 c -0.755 -7.649 -11.259 -7.607 -12.208 -0.094 z m -0.088 40.854 l 0.041 -17.911 l 19.961 0.046 c 8.045 0.186 8.219 11.69 0.053 12.178 c -2.484 0.148 -5.604 -1.762 -6.066 -5.576 c -0.357 -2.954 -2.623 -3.993 -4.432 -4.203 c -1.695 -0.197 -4.465 1.014 -4.984 4.057 c -0.328 1.908 0.791 4.386 3.33 5.193 c 3.027 0.962 4.531 3.977 4.305 6.173 c -0.786 7.645 -11.29 7.558 -12.208 0.043 z m -4.984 -40.865 l -0.04 17.91 l -19.962 -0.046 c -8.045 -0.186 -8.22 -11.69 -0.054 -12.178 c 2.486 -0.148 5.604 1.762 6.067 5.576 c 0.358 2.954 2.624 3.993 4.431 4.203 c 1.695 0.197 4.465 -1.014 4.986 -4.057 c 0.326 -1.908 -0.793 -4.386 -3.331 -5.193 c -3.027 -0.962 -4.531 -3.977 -4.306 -6.174 c 0.787 -7.644 11.29 -7.557 12.209 -0.041 z m -0.087 40.854 l 0.037 -17.911 l -19.962 -0.039 c -8.046 0.151 -8.27 11.655 -0.105 12.178 c 2.484 0.159 5.612 -1.738 6.09 -5.55 c 0.371 -2.952 2.641 -3.981 4.449 -4.184 c 1.696 -0.19 4.46 1.033 4.968 4.078 c 0.318 1.909 -0.811 4.383 -3.353 5.179 c -3.031 0.949 -4.548 3.958 -4.332 6.155 c 0.754 7.648 11.258 7.606 12.208 0.094 z m 32.2 -20.359 c 8.824 7.334 1.99 22.41 -9.916 19.325 c 0.137 9.215 -9.018 14.489 -17.252 9.938 c -0.734 -0.405 -1.859 -1.673 -2.51 -2.331 c -0.558 0.634 -1.786 1.918 -2.521 2.32 c -8.253 4.516 -17.386 -0.798 -17.209 -10.012 c -11.92 3.034 -18.689 -12.071 -9.834 -19.367 c -8.824 -7.334 -1.991 -22.41 9.917 -19.325 c -0.138 -9.215 9.018 -14.489 17.251 -9.939 c 0.734 0.406 1.956 1.695 2.511 2.331 c 0.655 -0.655 1.784 -1.918 2.52 -2.32 c 8.254 -4.515 17.387 0.798 17.209 10.012 c 11.92 -3.033 18.689 12.072 9.834 19.368 z" stroke-linecap="round"/>
</g>
</svg>